<svg xmlns="http://www.w3.org/2000/svg" width="523.92" height="417.792" viewBox="0 0 523.92 417.792">
  <g id="Group_16" data-name="Group 16" transform="translate(-768.08 -212.824)">
    <path id="Path_595" data-name="Path 595" d="M-28.56-298.112c-1.088-70.176-48.96-112.064-115.328-112.064-62.016,0-112.608,48.416-112.608,109.888,0,57.12,21.76,89.76,121.312,123.488,42.976,14.688,56.032,33.184,56.032,62.56,0,39.712-25.568,68-64.736,68s-64.736-29.376-65.28-72.9H-267.92C-266.832-43.52-215.7,7.616-143.888,7.616-72.624,7.616-20.4-41.344-20.4-114.24c0-69.632-32.1-102.272-119.136-130.016-39.168-12.512-58.208-28.832-58.208-57.12,0-29.376,25.568-54.944,53.856-54.944,33.184,0,56.576,21.76,56.576,58.208ZM109.616,0V-174.08h144.7v-53.856h-144.7V-348.7h144.7V-402.56H50.864V0Z" transform="translate(1036 623)" fill="#1c1818"/>
    <rect id="Rectangle_12" data-name="Rectangle 12" width="520" height="67" transform="translate(779 386)" fill="#f5f5f5"/>
  </g>
</svg>
