<svg xmlns="http://www.w3.org/2000/svg" width="1440" viewBox="0 0 1440 810" height="810" version="1.0"><defs><clipPath id="a"><path d="M 485 308.398438 L 491 308.398438 L 491 322 L 485 322 Z M 485 308.398438"/></clipPath><clipPath id="b"><path d="M 544 308.398438 L 550 308.398438 L 550 322 L 544 322 Z M 544 308.398438"/></clipPath></defs><path fill="#FFF" d="M-144 -81H1584V891H-144z"/><path fill="#FFF" d="M-144 -81H1584V891H-144z"/><path fill="#D45341" d="M 1439.964844 636.167969 L 0.03125 641.082031 L 0.03125 622.628906 L 1439.964844 626.308594 L 1439.964844 636.167969"/><path fill="#D45341" d="M 495.171875 766.054688 L 480.414062 766.054688 L 480.414062 319.261719 L 495.171875 319.261719 L 495.171875 766.054688"/><path fill="#D45341" d="M 493.800781 319.261719 C 493.800781 322.582031 491.117188 325.265625 487.800781 325.265625 C 484.484375 325.265625 481.800781 322.582031 481.800781 319.261719 C 481.800781 315.960938 484.484375 313.261719 487.800781 313.261719 C 491.117188 313.261719 493.800781 315.960938 493.800781 319.261719"/><g clip-path="url(#a)"><path fill="#D45341" d="M 490.242188 318.824219 C 490.242188 320.183594 489.144531 321.253906 487.800781 321.253906 C 486.445312 321.253906 485.359375 320.183594 485.359375 318.824219 L 485.359375 311 C 485.359375 309.660156 486.445312 308.574219 487.800781 308.574219 C 489.144531 308.574219 490.242188 309.660156 490.242188 311 L 490.242188 318.824219"/></g><path fill="#D45341" d="M 554.691406 766.054688 L 539.9375 766.054688 L 539.9375 319.261719 L 554.691406 319.261719 L 554.691406 766.054688"/><path fill="#D45341" d="M 553.304688 319.261719 C 553.304688 322.582031 550.621094 325.265625 547.308594 325.265625 C 543.992188 325.265625 541.308594 322.582031 541.308594 319.261719 C 541.308594 315.960938 543.992188 313.261719 547.308594 313.261719 C 550.621094 313.261719 553.304688 315.960938 553.304688 319.261719"/><g clip-path="url(#b)"><path fill="#D45341" d="M 549.75 318.824219 C 549.75 320.183594 548.648438 321.253906 547.308594 321.253906 C 545.964844 321.253906 544.867188 320.183594 544.867188 318.824219 L 544.867188 311 C 544.867188 309.660156 545.964844 308.574219 547.308594 308.574219 C 548.648438 308.574219 549.75 309.660156 549.75 311 L 549.75 318.824219"/></g><path fill="#D45341" d="M 496.996094 477.453125 C 496.996094 473.214844 500.433594 469.777344 504.667969 469.777344 L 531.300781 469.777344 C 535.535156 469.777344 538.972656 473.214844 538.972656 477.453125 L 538.972656 509.730469 C 538.972656 513.953125 535.535156 517.390625 531.300781 517.390625 L 504.667969 517.390625 C 500.433594 517.390625 496.996094 513.953125 496.996094 509.730469 Z M 496.996094 415.546875 C 496.996094 411.308594 500.433594 407.871094 504.667969 407.871094 L 531.300781 407.871094 C 535.535156 407.871094 538.972656 411.308594 538.972656 415.546875 L 538.972656 447.824219 C 538.972656 452.0625 535.535156 455.484375 531.300781 455.484375 L 504.667969 455.484375 C 500.433594 455.484375 496.996094 452.0625 496.996094 447.824219 Z M 496.996094 353.640625 C 496.996094 349.402344 500.433594 345.964844 504.667969 345.964844 L 531.300781 345.964844 C 535.535156 345.964844 538.972656 349.402344 538.972656 353.640625 L 538.972656 385.917969 C 538.972656 390.15625 535.535156 393.59375 531.300781 393.59375 L 504.667969 393.59375 C 500.433594 393.59375 496.996094 390.15625 496.996094 385.917969 Z M 496.996094 633.09375 L 496.996094 538.679688 C 496.996094 534.820312 500.433594 531.683594 504.667969 531.683594 L 531.300781 531.683594 C 535.535156 531.683594 538.972656 534.820312 538.972656 538.679688 L 538.972656 633.09375 L 542 633.09375 L 542 332.484375 L 493.105469 332.484375 L 493.105469 633.09375 L 496.996094 633.09375"/><path fill="#D45341" d="M 547.308594 697.773438 L 490.242188 697.773438 L 490.242188 685.542969 L 547.308594 685.542969 L 547.308594 697.773438"/><path fill="#D45341" d="M 547.140625 642.605469 L 491.464844 701.691406 L 484.757812 692.539062 L 540.417969 633.453125 L 547.140625 642.605469"/><path fill="#D45341" d="M 546.253906 694.726562 L 485.464844 643.449219 L 491.296875 633.453125 L 552.070312 684.730469 L 546.253906 694.726562"/><path fill="#D45341" d="M 548.527344 749.863281 L 491.449219 749.863281 L 491.449219 737.652344 L 548.527344 737.652344 L 548.527344 749.863281"/><path fill="#D45341" d="M 548.347656 694.710938 L 492.683594 753.785156 L 485.960938 744.632812 L 541.640625 685.542969 L 548.347656 694.710938"/><path fill="#D45341" d="M 547.457031 746.816406 L 486.6875 695.539062 L 492.519531 685.542969 L 553.289062 736.835938 L 547.457031 746.816406"/><path fill="#D45341" d="M 497.25 783.832031 L 477.550781 783.832031 L 477.550781 753.785156 L 497.25 753.785156 L 497.25 783.832031"/><path fill="#D45341" d="M 565.816406 797.972656 L 470.558594 797.972656 L 470.558594 777.425781 L 565.816406 777.425781 L 565.816406 797.972656"/><path fill="#D45341" d="M 557.164062 783.832031 L 537.464844 783.832031 L 537.464844 753.785156 L 557.164062 753.785156 L 557.164062 783.832031"/><path fill="#D45341" d="M 1193.894531 720.132812 L 1183.449219 720.132812 L 1183.449219 431.902344 L 1193.894531 431.902344 L 1193.894531 720.132812"/><path fill="#D45341" d="M 1192.914062 431.902344 C 1192.914062 434.242188 1191.03125 436.125 1188.679688 436.125 C 1186.328125 436.125 1184.429688 434.242188 1184.429688 431.902344 C 1184.429688 429.550781 1186.328125 427.636719 1188.679688 427.636719 C 1191.03125 427.636719 1192.914062 429.550781 1192.914062 431.902344"/><path fill="#D45341" d="M 1190.398438 431.585938 C 1190.398438 432.535156 1189.628906 433.320312 1188.679688 433.320312 C 1187.714844 433.320312 1186.945312 432.535156 1186.945312 431.585938 L 1186.945312 426.054688 C 1186.945312 425.121094 1187.714844 424.335938 1188.679688 424.335938 C 1189.628906 424.335938 1190.398438 425.121094 1190.398438 426.054688 L 1190.398438 431.585938"/><path fill="#D45341" d="M 1235.976562 720.132812 L 1225.53125 720.132812 L 1225.53125 431.902344 L 1235.976562 431.902344 L 1235.976562 720.132812"/><path fill="#D45341" d="M 1234.996094 431.902344 C 1234.996094 434.242188 1233.097656 436.125 1230.761719 436.125 C 1228.410156 436.125 1226.511719 434.242188 1226.511719 431.902344 C 1226.511719 429.550781 1228.410156 427.636719 1230.761719 427.636719 C 1233.097656 427.636719 1234.996094 429.550781 1234.996094 431.902344"/><path fill="#D45341" d="M 1232.480469 431.585938 C 1232.480469 432.535156 1231.710938 433.320312 1230.761719 433.320312 C 1229.8125 433.320312 1229.027344 432.535156 1229.027344 431.585938 L 1229.027344 426.054688 C 1229.027344 425.121094 1229.8125 424.335938 1230.761719 424.335938 C 1231.710938 424.335938 1232.480469 425.121094 1232.480469 426.054688 L 1232.480469 431.585938"/><path fill="#D45341" d="M 1195.175781 543.746094 C 1195.175781 540.761719 1197.617188 538.332031 1200.601562 538.332031 L 1219.441406 538.332031 C 1222.441406 538.332031 1224.871094 540.761719 1224.871094 543.746094 L 1224.871094 566.570312 C 1224.871094 569.574219 1222.441406 572.015625 1219.441406 572.015625 L 1200.601562 572.015625 C 1197.617188 572.015625 1195.175781 569.574219 1195.175781 566.570312 Z M 1195.175781 499.976562 C 1195.175781 496.976562 1197.617188 494.5625 1200.601562 494.5625 L 1219.441406 494.5625 C 1222.441406 494.5625 1224.871094 496.976562 1224.871094 499.976562 L 1224.871094 522.804688 C 1224.871094 525.804688 1222.441406 528.230469 1219.441406 528.230469 L 1200.601562 528.230469 C 1197.617188 528.230469 1195.175781 525.804688 1195.175781 522.804688 Z M 1195.175781 456.207031 C 1195.175781 453.207031 1197.617188 450.78125 1200.601562 450.78125 L 1219.441406 450.78125 C 1222.441406 450.78125 1224.871094 453.207031 1224.871094 456.207031 L 1224.871094 479.035156 C 1224.871094 482.019531 1222.441406 484.460938 1219.441406 484.460938 L 1200.601562 484.460938 C 1197.617188 484.460938 1195.175781 482.019531 1195.175781 479.035156 Z M 1195.175781 626.109375 L 1195.175781 587.0625 C 1195.175781 584.332031 1197.617188 582.101562 1200.601562 582.101562 L 1219.441406 582.101562 C 1222.441406 582.101562 1224.871094 584.332031 1224.871094 587.0625 L 1224.871094 626.109375 L 1227.007812 626.109375 L 1227.007812 441.238281 L 1192.433594 441.238281 L 1192.433594 626.109375 L 1195.175781 626.109375"/><path fill="#D45341" d="M 1230.761719 671.839844 L 1190.398438 671.839844 L 1190.398438 663.199219 L 1230.761719 663.199219 L 1230.761719 671.839844"/><path fill="#D45341" d="M 1230.640625 632.851562 L 1191.273438 674.628906 L 1186.523438 668.144531 L 1225.894531 626.367188 L 1230.640625 632.851562"/><path fill="#D45341" d="M 1230.007812 669.699219 L 1187.039062 633.4375 L 1191.152344 626.367188 L 1234.125 662.628906 L 1230.007812 669.699219"/><path fill="#D45341" d="M 1231.605469 708.671875 L 1191.257812 708.671875 L 1191.257812 700.050781 L 1231.605469 700.050781 L 1231.605469 708.671875"/><path fill="#D45341" d="M 1231.5 669.683594 L 1192.132812 711.460938 L 1187.382812 704.996094 L 1226.753906 663.199219 L 1231.5 669.683594"/><path fill="#D45341" d="M 1230.867188 706.546875 L 1187.898438 670.285156 L 1192.011719 663.199219 L 1234.996094 699.476562 L 1230.867188 706.546875"/><path fill="#D45341" d="M 1195.359375 732.707031 L 1181.429688 732.707031 L 1181.429688 711.460938 L 1195.359375 711.460938 L 1195.359375 732.707031"/><path fill="#D45341" d="M 1243.84375 742.71875 L 1176.488281 742.71875 L 1176.488281 728.167969 L 1243.84375 728.167969 L 1243.84375 742.71875"/><path fill="#D45341" d="M 1237.726562 732.707031 L 1223.800781 732.707031 L 1223.800781 711.460938 L 1237.726562 711.460938 L 1237.726562 732.707031"/><path fill="#D45341" d="M 548.332031 312.011719 C 548.332031 312.011719 558.234375 321.628906 575.914062 338.109375 C 593.535156 354.632812 619.140625 377.792969 650.339844 405.023438 C 681.542969 432.25 718.769531 463.039062 759.84375 494.445312 C 780.402344 510.109375 801.984375 525.847656 824.503906 540.957031 C 847.003906 556.046875 870.398438 570.628906 894.648438 583.5625 C 918.824219 596.546875 943.859375 608.167969 969.710938 615.542969 C 982.613281 619.144531 995.710938 621.859375 1008.730469 622.296875 C 1021.828125 622.765625 1034.792969 621.695312 1047.347656 619.433594 C 1072.441406 614.820312 1095.578125 605.003906 1115.140625 592.097656 C 1134.796875 579.222656 1150.953125 563.570312 1164.25 547.90625 C 1177.496094 532.136719 1188.046875 516.367188 1196.519531 501.890625 C 1204.972656 487.386719 1211.347656 474.179688 1216.1875 463.128906 C 1225.863281 440.996094 1229.632812 427.652344 1229.632812 427.652344 C 1229.632812 427.652344 1228.804688 431.015625 1226.875 437.195312 C 1224.914062 443.363281 1221.945312 452.410156 1217.347656 463.609375 C 1212.78125 474.828125 1206.722656 488.246094 1198.597656 503.066406 C 1190.472656 517.859375 1180.269531 534.082031 1167.050781 550.226562 C 1153.816406 566.316406 1137.660156 582.492188 1117.75 596.003906 C 1097.945312 609.511719 1074.28125 620.1875 1048.371094 624.933594 C 1035.453125 627.347656 1022.054688 628.523438 1008.519531 628.117188 C 994.867188 627.710938 981.332031 624.980469 968.082031 621.347656 C 941.523438 613.929688 916.097656 602.257812 891.589844 589.261719 C 867.140625 576.085938 843.675781 561.265625 821.109375 545.960938 C 798.546875 530.660156 776.964844 514.738281 756.40625 498.90625 C 715.332031 467.214844 678.8125 435.417969 647.929688 407.765625 C 617.0625 380.054688 592.3125 355.929688 575.039062 339.015625 C 557.828125 322.039062 548.332031 312.011719 548.332031 312.011719"/><path fill="#D45341" d="M 490.242188 311 C 490.242188 311 500.613281 320.515625 519.105469 336.738281 C 537.570312 353.035156 564.367188 375.800781 597.015625 402.488281 C 629.664062 429.191406 668.59375 459.285156 711.460938 489.859375 C 754.355469 520.359375 801.515625 551.117188 851.46875 576.507812 C 876.398438 589.234375 902.078125 600.585938 928.289062 608.742188 C 941.386719 612.796875 954.621094 616.070312 967.886719 617.910156 C 981.074219 619.824219 994.398438 620.15625 1007.300781 619.128906 C 1033.210938 617.15625 1057.730469 609.617188 1078.382812 597.707031 C 1099.105469 585.839844 1115.894531 570.113281 1129.085938 553.9375 C 1142.289062 537.683594 1152.175781 521.023438 1159.832031 505.78125 C 1167.457031 490.492188 1172.839844 476.546875 1176.789062 464.921875 C 1184.609375 441.597656 1186.945312 427.652344 1186.945312 427.652344 C 1186.945312 427.652344 1186.464844 431.136719 1185.136719 437.601562 C 1183.78125 444.054688 1181.625 453.523438 1177.980469 465.316406 C 1174.332031 477.089844 1169.296875 491.246094 1162.003906 506.851562 C 1154.691406 522.410156 1145.183594 539.523438 1131.949219 556.230469 C 1118.789062 572.902344 1101.910156 589.261719 1080.777344 601.792969 C 1059.738281 614.367188 1034.476562 622.734375 1007.765625 624.785156 C 994.382812 625.914062 980.757812 625.628906 967.070312 623.742188 C 953.417969 621.90625 939.867188 618.632812 926.511719 614.578125 C 899.773438 606.421875 873.730469 595.066406 848.496094 582.359375 C 798.214844 556.46875 751.039062 525.304688 708.144531 494.488281 C 686.664062 479.09375 666.4375 463.519531 647.460938 448.503906 C 628.488281 433.472656 610.808594 418.9375 594.648438 405.339844 C 562.335938 378.152344 536.363281 354.378906 518.261719 337.6875 C 500.207031 320.9375 490.242188 311 490.242188 311"/><path fill="#D45341" d="M 569.117188 335.246094 C 569.117188 335.246094 569.222656 339.84375 569.386719 347.925781 C 569.523438 355.992188 569.886719 367.511719 570.035156 381.335938 C 570.1875 395.175781 570.351562 411.308594 570.535156 428.601562 C 570.609375 445.894531 570.683594 464.335938 570.757812 482.773438 C 570.683594 501.226562 570.609375 519.667969 570.535156 536.945312 C 570.351562 554.238281 570.1875 570.386719 570.035156 584.210938 C 569.902344 598.054688 569.539062 609.570312 569.386719 617.636719 C 569.222656 625.703125 569.117188 630.316406 569.117188 630.316406 C 569.117188 630.316406 569.011719 625.703125 568.84375 617.636719 C 568.695312 609.570312 568.332031 598.054688 568.199219 584.210938 C 568.046875 570.386719 567.878906 554.238281 567.699219 536.945312 C 567.625 519.667969 567.550781 501.226562 567.472656 482.773438 C 567.550781 464.335938 567.625 445.894531 567.699219 428.601562 C 567.878906 411.308594 568.046875 395.175781 568.199219 381.335938 C 568.347656 367.511719 568.710938 355.992188 568.84375 347.925781 C 569.011719 339.84375 569.117188 335.246094 569.117188 335.246094"/><path fill="#D45341" d="M 589.464844 352.960938 C 589.464844 352.960938 589.585938 357.242188 589.78125 364.734375 C 589.929688 372.230469 590.144531 382.949219 590.382812 395.792969 C 590.535156 408.65625 590.699219 423.640625 590.894531 439.714844 C 590.957031 455.785156 591.03125 472.929688 591.105469 490.054688 C 591.03125 507.199219 590.957031 524.339844 590.894531 540.398438 C 590.714844 556.46875 590.535156 571.472656 590.398438 584.316406 C 589.992188 610.023438 589.464844 627.167969 589.464844 627.167969 C 589.464844 627.167969 588.9375 610.023438 588.546875 584.316406 C 588.394531 571.472656 588.226562 556.46875 588.046875 540.398438 C 587.988281 524.339844 587.910156 507.199219 587.835938 490.054688 C 587.910156 472.929688 587.988281 455.785156 588.046875 439.714844 C 588.226562 423.640625 588.410156 408.65625 588.546875 395.792969 C 588.800781 382.949219 589.011719 372.242188 589.148438 364.734375 C 589.359375 357.242188 589.464844 352.960938 589.464844 352.960938"/><path fill="#D45341" d="M 609.828125 370.660156 C 609.828125 370.660156 609.933594 374.6875 610.144531 381.710938 C 610.277344 388.722656 610.492188 398.765625 610.746094 410.8125 C 610.882812 422.859375 611.0625 436.910156 611.242188 451.957031 C 611.304688 467.003906 611.378906 483.058594 611.453125 499.117188 C 611.378906 515.175781 611.320312 531.230469 611.242188 546.277344 C 611.183594 561.339844 610.882812 575.390625 610.746094 587.4375 C 610.355469 611.515625 609.828125 627.574219 609.828125 627.574219 C 609.828125 627.574219 609.300781 611.515625 608.894531 587.4375 C 608.757812 575.390625 608.457031 561.339844 608.394531 546.277344 C 608.335938 531.230469 608.257812 515.175781 608.183594 499.117188 C 608.257812 483.058594 608.335938 467.003906 608.410156 451.957031 C 608.589844 436.910156 608.757812 422.859375 608.90625 410.8125 C 609.148438 398.765625 609.359375 388.722656 609.511719 381.710938 C 609.707031 374.6875 609.828125 370.660156 609.828125 370.660156"/><path fill="#D45341" d="M 630.175781 388.375 C 630.175781 388.375 630.296875 392.117188 630.492188 398.660156 C 630.640625 405.203125 630.851562 414.550781 631.09375 425.765625 C 631.230469 436.96875 631.53125 450.054688 631.589844 464.078125 C 631.667969 478.085938 631.742188 493.042969 631.816406 507.984375 C 631.742188 522.9375 631.667969 537.894531 631.589844 551.902344 C 631.546875 565.921875 631.230469 578.996094 631.09375 590.210938 C 630.703125 612.648438 630.175781 627.589844 630.175781 627.589844 C 630.175781 627.589844 629.648438 612.648438 629.253906 590.210938 C 629.121094 578.996094 628.804688 565.910156 628.757812 551.902344 C 628.683594 537.894531 628.605469 522.9375 628.53125 507.984375 C 628.605469 493.042969 628.683594 478.085938 628.757812 464.078125 C 628.816406 450.054688 629.121094 436.96875 629.253906 425.765625 C 629.511719 414.550781 629.707031 405.203125 629.859375 398.660156 C 630.054688 392.117188 630.175781 388.375 630.175781 388.375"/><path fill="#D45341" d="M 650.523438 406.09375 C 650.523438 406.09375 650.597656 409.558594 650.734375 415.621094 C 650.808594 421.679688 650.929688 430.335938 651.066406 440.738281 C 651.082031 451.113281 651.246094 463.25 651.171875 476.214844 C 651.09375 489.210938 651.019531 503.050781 650.945312 516.90625 C 651.035156 530.75 651.109375 544.589844 651.1875 557.570312 C 651.261719 570.550781 651.082031 582.660156 651.066406 593.046875 C 650.898438 613.824219 650.523438 627.679688 650.523438 627.679688 C 650.523438 627.679688 649.84375 613.839844 649.226562 593.078125 C 648.96875 582.675781 648.53125 570.566406 648.335938 557.570312 C 648.125 544.574219 647.898438 530.71875 647.671875 516.863281 C 647.898438 503.023438 648.125 489.179688 648.335938 476.183594 C 648.53125 463.203125 648.96875 451.097656 649.226562 440.707031 C 649.589844 430.320312 649.890625 421.667969 650.101562 415.621094 C 650.371094 409.558594 650.523438 406.09375 650.523438 406.09375"/><path fill="#D45341" d="M 670.886719 423.824219 C 670.886719 423.824219 670.992188 427.003906 671.203125 432.582031 C 671.335938 438.144531 671.652344 446.105469 671.804688 455.664062 C 671.941406 465.210938 672.242188 476.351562 672.300781 488.292969 C 672.378906 500.25 672.4375 512.988281 672.511719 525.714844 C 672.4375 538.453125 672.378906 551.195312 672.300781 563.132812 C 672.257812 575.074219 671.941406 586.21875 671.804688 595.777344 C 671.414062 614.878906 670.886719 627.617188 670.886719 627.617188 C 670.886719 627.617188 670.359375 614.878906 669.964844 595.777344 C 669.832031 586.21875 669.511719 575.074219 669.453125 563.132812 C 669.394531 551.195312 669.316406 538.453125 669.242188 525.714844 C 669.316406 512.988281 669.394531 500.25 669.46875 488.292969 C 669.527344 476.351562 669.832031 465.210938 669.964844 455.664062 C 670.117188 446.105469 670.433594 438.144531 670.570312 432.582031 C 670.765625 427.003906 670.886719 423.824219 670.886719 423.824219"/><path fill="#D45341" d="M 691.234375 441.539062 C 691.234375 441.539062 691.351562 444.433594 691.550781 449.484375 C 691.683594 454.550781 692.015625 461.785156 692.152344 470.472656 C 692.289062 479.15625 692.589844 489.285156 692.664062 500.128906 C 692.726562 510.984375 692.800781 522.546875 692.875 534.125 C 692.800781 545.707031 692.726562 557.285156 692.664062 568.140625 C 692.605469 578.980469 692.304688 589.113281 692.167969 597.796875 C 691.761719 615.148438 691.234375 626.730469 691.234375 626.730469 C 691.234375 626.730469 690.707031 615.148438 690.3125 597.796875 C 690.179688 589.113281 689.875 578.980469 689.816406 568.140625 C 689.753906 557.285156 689.679688 545.707031 689.605469 534.125 C 689.679688 522.546875 689.753906 510.984375 689.816406 500.128906 C 689.875 489.285156 690.179688 479.15625 690.3125 470.472656 C 690.464844 461.785156 690.796875 454.550781 690.917969 449.484375 C 691.128906 444.433594 691.234375 441.539062 691.234375 441.539062"/><path fill="#D45341" d="M 711.59375 459.253906 C 711.59375 459.253906 711.699219 461.878906 711.914062 466.492188 C 712.03125 471.074219 712.363281 477.664062 712.515625 485.546875 C 712.636719 493.449219 712.953125 502.660156 713.011719 512.519531 C 713.074219 522.382812 713.148438 532.90625 713.222656 543.429688 C 713.148438 553.953125 713.085938 564.476562 713.011719 574.335938 C 712.953125 584.210938 712.652344 593.410156 712.515625 601.292969 C 712.125 617.078125 711.59375 627.605469 711.59375 627.605469 C 711.59375 627.605469 711.066406 617.078125 710.660156 601.292969 C 710.527344 593.410156 710.222656 584.195312 710.164062 574.335938 C 710.101562 564.476562 710.027344 553.953125 709.953125 543.429688 C 710.027344 532.90625 710.101562 522.382812 710.179688 512.519531 C 710.238281 502.660156 710.539062 493.449219 710.675781 485.546875 C 710.828125 477.664062 711.144531 471.074219 711.277344 466.492188 C 711.476562 461.878906 711.59375 459.253906 711.59375 459.253906"/><path fill="#D45341" d="M 731.941406 476.96875 C 731.941406 476.96875 732.0625 479.320312 732.257812 483.421875 C 732.394531 487.523438 732.710938 493.386719 732.863281 500.429688 C 733 507.46875 733.300781 515.6875 733.359375 524.476562 C 733.433594 533.28125 733.511719 542.675781 733.570312 552.066406 C 733.511719 561.445312 733.433594 570.839844 733.359375 579.628906 C 733.316406 588.433594 733 596.652344 732.863281 603.691406 C 732.472656 617.773438 731.941406 627.152344 731.941406 627.152344 C 731.941406 627.152344 731.414062 617.773438 731.023438 603.691406 C 730.886719 596.652344 730.570312 588.433594 730.527344 579.628906 C 730.449219 570.839844 730.375 561.445312 730.300781 552.066406 C 730.375 542.675781 730.449219 533.28125 730.527344 524.476562 C 730.585938 515.6875 730.886719 507.46875 731.023438 500.429688 C 731.175781 493.386719 731.492188 487.523438 731.625 483.421875 C 731.824219 479.320312 731.941406 476.96875 731.941406 476.96875"/><path fill="#D45341" d="M 752.304688 494.683594 C 752.304688 494.683594 752.410156 496.75 752.621094 500.355469 C 752.742188 503.972656 753.074219 509.128906 753.226562 515.308594 C 753.347656 521.507812 753.664062 528.730469 753.722656 536.464844 C 753.78125 544.199219 753.859375 552.445312 753.933594 560.707031 C 753.859375 568.953125 753.78125 577.203125 753.722656 584.9375 C 753.664062 592.683594 753.359375 599.890625 753.226562 606.089844 C 752.832031 618.46875 752.304688 626.714844 752.304688 626.714844 C 752.304688 626.714844 751.777344 618.46875 751.371094 606.089844 C 751.234375 599.890625 750.933594 592.683594 750.875 584.9375 C 750.8125 577.203125 750.738281 568.953125 750.664062 560.707031 C 750.738281 552.445312 750.8125 544.199219 750.890625 536.464844 C 750.949219 528.730469 751.25 521.507812 751.386719 515.308594 C 751.523438 509.128906 751.855469 503.972656 751.988281 500.355469 C 752.183594 496.75 752.304688 494.683594 752.304688 494.683594"/><path fill="#D45341" d="M 1177.042969 466.820312 C 1177.042969 466.820312 1177.511719 477.136719 1177.875 492.605469 C 1177.996094 500.339844 1178.265625 509.371094 1178.324219 519.035156 C 1178.386719 528.714844 1178.445312 539.027344 1178.523438 549.339844 C 1178.445312 559.652344 1178.386719 569.964844 1178.324219 579.628906 C 1178.28125 589.308594 1177.996094 598.339844 1177.875 606.074219 C 1177.527344 621.542969 1177.042969 631.855469 1177.042969 631.855469 C 1177.042969 631.855469 1176.578125 621.542969 1176.214844 606.074219 C 1176.09375 598.339844 1175.808594 589.308594 1175.761719 579.628906 C 1175.703125 569.964844 1175.644531 559.652344 1175.566406 549.339844 C 1175.644531 539.027344 1175.703125 528.714844 1175.761719 519.035156 C 1175.824219 509.371094 1176.09375 500.339844 1176.214844 492.605469 C 1176.578125 477.136719 1177.042969 466.820312 1177.042969 466.820312"/><path fill="#D45341" d="M 1159.636719 509.777344 C 1159.636719 509.777344 1160.074219 517.40625 1160.390625 528.847656 C 1160.496094 534.578125 1160.738281 541.257812 1160.796875 548.402344 C 1160.855469 555.566406 1160.917969 563.179688 1160.976562 570.824219 C 1160.917969 578.4375 1160.855469 586.066406 1160.796875 593.226562 C 1160.75 600.375 1160.496094 607.054688 1160.390625 612.78125 C 1160.074219 624.226562 1159.636719 631.855469 1159.636719 631.855469 C 1159.636719 631.855469 1159.214844 624.226562 1158.898438 612.78125 C 1158.777344 607.054688 1158.535156 600.375 1158.492188 593.226562 C 1158.429688 586.066406 1158.371094 578.4375 1158.308594 570.824219 C 1158.371094 563.179688 1158.429688 555.566406 1158.492188 548.402344 C 1158.535156 541.257812 1158.792969 534.578125 1158.898438 528.847656 C 1159.214844 517.40625 1159.636719 509.777344 1159.636719 509.777344"/><path fill="#D45341" d="M 1140.132812 543.023438 C 1140.132812 543.023438 1140.433594 548.570312 1140.613281 556.90625 C 1140.660156 561.070312 1140.8125 565.921875 1140.78125 571.140625 C 1140.765625 576.34375 1140.75 581.890625 1140.71875 587.453125 C 1140.75 593.003906 1140.765625 598.550781 1140.78125 603.738281 C 1140.824219 608.953125 1140.660156 613.808594 1140.613281 617.96875 C 1140.449219 626.292969 1140.132812 631.855469 1140.132812 631.855469 C 1140.132812 631.855469 1139.679688 626.320312 1139.273438 617.984375 C 1139.121094 613.824219 1138.835938 608.953125 1138.714844 603.738281 C 1138.609375 598.535156 1138.472656 592.972656 1138.339844 587.421875 C 1138.472656 581.859375 1138.59375 576.3125 1138.714844 571.109375 C 1138.835938 565.910156 1139.121094 561.054688 1139.273438 556.890625 C 1139.679688 548.554688 1140.132812 543.023438 1140.132812 543.023438"/><path fill="#D45341" d="M 1119.484375 568.710938 C 1119.484375 568.710938 1119.800781 572.390625 1120.054688 577.925781 C 1120.132812 580.699219 1120.328125 583.910156 1120.371094 587.363281 C 1120.402344 590.832031 1120.464844 594.507812 1120.507812 598.1875 C 1120.464844 601.882812 1120.417969 605.5625 1120.371094 609.015625 C 1120.34375 612.480469 1120.148438 615.691406 1120.054688 618.46875 C 1119.816406 623.984375 1119.484375 627.664062 1119.484375 627.664062 C 1119.484375 627.664062 1119.152344 623.984375 1118.894531 618.46875 C 1118.820312 615.691406 1118.625 612.480469 1118.578125 609.015625 C 1118.550781 605.5625 1118.503906 601.882812 1118.457031 598.1875 C 1118.503906 594.507812 1118.550781 590.832031 1118.59375 587.363281 C 1118.625 583.910156 1118.820312 580.699219 1118.894531 577.925781 C 1119.152344 572.390625 1119.484375 568.710938 1119.484375 568.710938"/><path fill="#D45341" d="M 1101.5625 584.484375 C 1101.5625 584.484375 1101.878906 587.4375 1102.121094 591.886719 C 1102.347656 596.320312 1102.558594 602.246094 1102.542969 608.167969 C 1102.558594 614.09375 1102.347656 620.003906 1102.121094 624.453125 C 1101.878906 628.902344 1101.5625 631.855469 1101.5625 631.855469 C 1101.5625 631.855469 1101.246094 628.902344 1101.019531 624.453125 C 1100.777344 620.003906 1100.566406 614.09375 1100.582031 608.167969 C 1100.566406 602.246094 1100.777344 596.320312 1101.019531 591.886719 C 1101.246094 587.4375 1101.5625 584.484375 1101.5625 584.484375"/><path fill="#D45341" d="M 1084.742188 597.195312 C 1084.742188 597.195312 1084.996094 599.363281 1085.207031 602.605469 C 1085.269531 604.234375 1085.433594 606.132812 1085.464844 608.167969 C 1085.496094 610.191406 1085.539062 612.359375 1085.570312 614.515625 C 1085.539062 616.6875 1085.496094 618.859375 1085.464844 620.894531 C 1085.433594 622.914062 1085.285156 624.816406 1085.207031 626.441406 C 1085.011719 629.699219 1084.742188 631.855469 1084.742188 631.855469 C 1084.742188 631.855469 1084.46875 629.699219 1084.257812 626.441406 C 1084.199219 624.816406 1084.035156 622.914062 1084.003906 620.894531 C 1083.972656 618.859375 1083.941406 616.6875 1083.898438 614.515625 C 1083.941406 612.359375 1083.972656 610.191406 1084.003906 608.167969 C 1084.035156 606.132812 1084.199219 604.234375 1084.257812 602.605469 C 1084.46875 599.363281 1084.742188 597.195312 1084.742188 597.195312"/><path fill="#D45341" d="M 1068.464844 604.597656 C 1068.464844 604.597656 1068.71875 606.527344 1068.902344 609.421875 C 1068.960938 610.867188 1069.113281 612.542969 1069.140625 614.351562 C 1069.1875 616.144531 1069.21875 618.074219 1069.246094 620.003906 C 1069.203125 623.847656 1069.125 627.710938 1068.902344 630.589844 C 1068.71875 633.484375 1068.464844 635.414062 1068.464844 635.414062 C 1068.464844 635.414062 1068.207031 633.484375 1068.011719 630.589844 C 1067.800781 627.710938 1067.726562 623.847656 1067.664062 620.003906 C 1067.710938 618.074219 1067.738281 616.144531 1067.769531 614.351562 C 1067.800781 612.542969 1067.949219 610.867188 1068.011719 609.421875 C 1068.207031 606.527344 1068.464844 604.597656 1068.464844 604.597656"/><path fill="#D45341" d="M 1047.828125 613.128906 C 1047.828125 613.128906 1048.027344 614.304688 1048.175781 616.054688 C 1048.34375 617.820312 1048.402344 620.140625 1048.449219 622.492188 C 1048.402344 624.828125 1048.34375 627.167969 1048.175781 628.929688 C 1048.027344 630.695312 1047.828125 631.855469 1047.828125 631.855469 C 1047.828125 631.855469 1047.632812 630.695312 1047.484375 628.929688 C 1047.316406 627.167969 1047.257812 624.828125 1047.210938 622.492188 C 1047.257812 620.140625 1047.316406 617.820312 1047.484375 616.054688 C 1047.632812 614.304688 1047.828125 613.128906 1047.828125 613.128906"/><path fill="#D45341" d="M 772.652344 507.695312 C 772.652344 507.695312 772.773438 509.566406 772.96875 512.835938 C 773.105469 516.109375 773.421875 520.796875 773.574219 526.40625 C 773.722656 532.03125 773.996094 538.574219 774.101562 545.601562 C 774.234375 552.609375 774.265625 560.105469 774.296875 567.597656 C 774.265625 575.074219 774.25 582.570312 774.101562 589.578125 C 774.011719 596.605469 773.722656 603.164062 773.589844 608.773438 C 773.179688 620.003906 772.652344 627.5 772.652344 627.5 C 772.652344 627.5 772.125 620.003906 771.71875 608.773438 C 771.582031 603.164062 771.296875 596.605469 771.191406 589.578125 C 771.054688 582.570312 771.039062 575.074219 770.996094 567.597656 C 771.039062 560.105469 771.054688 552.609375 771.207031 545.601562 C 771.296875 538.574219 771.582031 532.03125 771.71875 526.40625 C 771.871094 520.796875 772.203125 516.109375 772.335938 512.835938 C 772.53125 509.566406 772.652344 507.695312 772.652344 507.695312"/><path fill="#D45341" d="M 793 522.652344 C 793 522.652344 793.121094 524.28125 793.316406 527.144531 C 793.453125 530.023438 793.785156 534.109375 793.9375 539.027344 C 794.070312 543.925781 794.359375 549.65625 794.464844 555.808594 C 794.597656 561.941406 794.628906 568.488281 794.660156 575.046875 C 794.628906 581.589844 794.597656 588.132812 794.464844 594.269531 C 794.359375 600.417969 794.085938 606.132812 793.9375 611.050781 C 793.527344 620.878906 793 627.421875 793 627.421875 C 793 627.421875 792.472656 620.878906 792.066406 611.050781 C 791.917969 606.132812 791.644531 600.417969 791.539062 594.269531 C 791.402344 588.132812 791.375 581.589844 791.34375 575.046875 C 791.375 568.488281 791.402344 561.941406 791.539062 555.808594 C 791.644531 549.65625 791.929688 543.925781 792.066406 539.027344 C 792.21875 534.109375 792.550781 530.023438 792.683594 527.144531 C 792.878906 524.28125 793 522.652344 793 522.652344"/><path fill="#D45341" d="M 813.363281 537.019531 C 813.363281 537.019531 813.875 542.691406 814.3125 551.179688 C 814.734375 559.683594 815.023438 571.003906 815.023438 582.328125 C 815.023438 593.664062 814.734375 604.972656 814.3125 613.476562 C 813.875 621.980469 813.363281 627.632812 813.363281 627.632812 C 813.363281 627.632812 812.835938 621.980469 812.398438 613.476562 C 811.976562 604.972656 811.707031 593.664062 811.691406 582.328125 C 811.707031 571.003906 811.976562 559.683594 812.414062 551.179688 C 812.851562 542.691406 813.363281 537.019531 813.363281 537.019531"/><path fill="#D45341" d="M 833.710938 551.992188 C 833.710938 551.992188 834.238281 556.679688 834.675781 563.691406 C 835.097656 570.71875 835.386719 580.082031 835.398438 589.445312 C 835.386719 598.808594 835.113281 608.167969 834.675781 615.195312 C 834.238281 622.207031 833.710938 626.894531 833.710938 626.894531 C 833.726562 626.894531 833.199219 622.207031 832.761719 615.195312 C 832.324219 608.167969 832.054688 598.808594 832.039062 589.445312 C 832.054688 580.082031 832.339844 570.71875 832.761719 563.691406 C 833.199219 556.679688 833.726562 551.992188 833.710938 551.992188"/><path fill="#D45341" d="M 854.058594 563.769531 C 854.058594 563.769531 854.585938 567.761719 855.039062 573.734375 C 855.460938 579.71875 855.746094 587.695312 855.761719 595.671875 C 855.746094 603.644531 855.460938 611.621094 855.039062 617.609375 C 854.585938 623.59375 854.058594 627.574219 854.058594 627.574219 C 854.058594 627.574219 853.546875 623.59375 853.09375 617.609375 C 852.65625 611.621094 852.386719 603.644531 852.371094 595.671875 C 852.386719 587.695312 852.671875 579.71875 853.09375 573.734375 C 853.546875 567.761719 854.058594 563.769531 854.058594 563.769531"/><path fill="#D45341" d="M 874.421875 577.335938 C 874.421875 577.335938 874.996094 580.472656 875.386719 585.160156 C 875.824219 589.867188 876.109375 596.121094 876.125 602.378906 C 876.109375 608.636719 875.824219 614.894531 875.402344 619.597656 C 874.996094 624.285156 874.421875 627.421875 874.421875 627.421875 C 874.421875 627.421875 873.847656 624.285156 873.441406 619.597656 C 873.003906 614.894531 872.734375 608.636719 872.71875 602.378906 C 872.734375 596.121094 873.019531 589.867188 873.441406 585.160156 C 873.847656 580.472656 874.421875 577.335938 874.421875 577.335938"/><path fill="#D45341" d="M 894.785156 587.304688 C 894.785156 587.304688 895.359375 589.804688 895.765625 593.542969 C 896.203125 597.269531 896.488281 602.257812 896.503906 607.25 C 896.488281 612.242188 896.203125 617.214844 895.765625 620.953125 C 895.359375 624.707031 894.785156 627.195312 894.785156 627.195312 C 894.785156 627.195312 894.195312 624.707031 893.789062 620.953125 C 893.351562 617.214844 893.066406 612.242188 893.050781 607.25 C 893.066406 602.257812 893.351562 597.269531 893.789062 593.542969 C 894.195312 589.804688 894.785156 587.304688 894.785156 587.304688"/><path fill="#D45341" d="M 915.117188 596.710938 C 915.117188 596.710938 915.707031 598.640625 916.128906 601.535156 C 916.5625 604.429688 916.851562 608.289062 916.867188 612.148438 C 916.851562 616.007812 916.5625 619.871094 916.128906 622.765625 C 915.707031 625.660156 915.117188 627.589844 915.117188 627.589844 C 915.117188 627.589844 914.53125 625.660156 914.121094 622.765625 C 913.671875 619.871094 913.382812 616.007812 913.382812 612.148438 C 913.398438 608.289062 913.6875 604.429688 914.121094 601.535156 C 914.542969 598.640625 915.117188 596.710938 915.117188 596.710938"/><path fill="#D45341" d="M 935.480469 606.796875 C 935.480469 606.796875 936.066406 608.078125 936.488281 609.992188 C 936.941406 611.921875 937.230469 614.488281 937.242188 617.050781 C 937.230469 619.613281 936.941406 622.191406 936.488281 624.105469 C 936.082031 626.035156 935.480469 627.316406 935.480469 627.316406 C 935.480469 627.316406 934.890625 626.035156 934.46875 624.105469 C 934.019531 622.191406 933.730469 619.613281 933.714844 617.050781 C 933.730469 614.488281 934.019531 611.921875 934.46875 609.992188 C 934.890625 608.078125 935.480469 606.796875 935.480469 606.796875"/><path fill="#D45341" d="M 955.828125 613.128906 C 955.828125 613.128906 956.429688 614.035156 956.851562 615.40625 C 957.320312 616.761719 957.621094 618.585938 957.621094 620.398438 C 957.621094 622.222656 957.320312 624.046875 956.867188 625.402344 C 956.429688 626.757812 955.828125 627.664062 955.828125 627.664062 C 955.828125 627.664062 955.226562 626.757812 954.804688 625.402344 C 954.351562 624.046875 954.050781 622.222656 954.035156 620.398438 C 954.050781 618.585938 954.351562 616.761719 954.804688 615.40625 C 955.238281 614.035156 955.828125 613.128906 955.828125 613.128906"/><path fill="#D45341" d="M 486.777344 312.011719 C 486.777344 312.011719 480.628906 318.449219 469.652344 329.484375 C 458.652344 340.507812 442.765625 356.066406 423.351562 374.414062 C 403.984375 392.808594 380.878906 413.707031 355.664062 435.597656 C 330.414062 457.445312 303.089844 480.316406 274.785156 501.980469 C 246.539062 523.722656 217.492188 544.5 189.203125 562.378906 C 160.957031 580.335938 133.464844 595.460938 108.824219 606.222656 C 84.222656 617.09375 62.476562 623.472656 46.84375 626.082031 C 39.039062 627.421875 32.796875 627.933594 28.546875 628.160156 C 24.265625 628.265625 21.992188 628.328125 21.992188 628.328125 C 20.347656 628.371094 18.976562 627.074219 18.929688 625.417969 C 18.886719 623.789062 20.167969 622.417969 21.808594 622.355469 L 21.992188 622.355469 C 21.992188 622.355469 24.160156 622.28125 28.230469 622.128906 C 32.285156 621.890625 38.253906 621.347656 45.773438 620.003906 C 60.847656 617.398438 82.054688 611.167969 106.246094 600.375 C 130.464844 589.671875 157.703125 574.742188 185.8125 557.027344 C 213.921875 539.265625 242.9375 518.777344 271.289062 497.398438 C 299.59375 475.957031 327.339844 453.734375 352.859375 432.296875 C 378.40625 410.902344 401.664062 390.230469 421.589844 372.5 C 441.453125 354.710938 457.71875 339.527344 469.050781 328.867188 C 480.414062 318.222656 486.777344 312.011719 486.777344 312.011719"/><path fill="#D45341" d="M 544.867188 311 C 544.867188 311 538.144531 317.636719 526.128906 328.972656 C 514.085938 340.28125 496.710938 356.246094 475.488281 375.003906 C 454.296875 393.804688 429.003906 415.078125 401.453125 437.363281 C 387.660156 448.472656 373.296875 459.796875 358.511719 471.105469 C 343.738281 482.410156 328.441406 493.523438 313.023438 504.453125 C 282.167969 526.300781 250.457031 547.015625 219.738281 564.792969 C 204.367188 573.671875 189.277344 581.921875 174.628906 589.050781 C 159.992188 596.214844 145.871094 602.441406 132.589844 607.613281 C 106.050781 618.03125 82.761719 623.742188 66.199219 626.203125 C 57.90625 627.347656 51.320312 627.875 46.828125 628.039062 C 42.324219 628.160156 39.925781 628.222656 39.925781 628.222656 C 38.328125 628.265625 37.019531 627 36.972656 625.417969 C 36.941406 623.835938 38.179688 622.507812 39.761719 622.476562 L 39.925781 622.460938 C 39.925781 622.460938 42.234375 622.386719 46.574219 622.265625 C 50.914062 622.070312 57.273438 621.527344 65.324219 620.382812 C 81.40625 617.894531 104.179688 612.210938 130.316406 601.777344 C 143.382812 596.621094 157.308594 590.378906 171.765625 583.21875 C 186.203125 576.023438 201.277344 568.078125 216.574219 559.289062 C 247.1875 541.785156 278.851562 521.339844 309.707031 499.734375 C 325.171875 488.96875 340.363281 477.828125 355.300781 466.820312 C 370.222656 455.800781 384.738281 444.71875 398.679688 433.847656 C 426.578125 412.136719 451.972656 391.058594 473.707031 372.9375 C 495.414062 354.769531 513.152344 339.242188 525.527344 328.308594 C 537.917969 317.394531 544.867188 311 544.867188 311"/><path fill="#D45341" d="M 465.992188 335.246094 C 465.992188 335.246094 466.082031 339.84375 466.261719 347.925781 C 466.398438 355.992188 466.761719 367.511719 466.910156 381.335938 C 467.046875 395.175781 467.226562 411.308594 467.410156 428.601562 C 467.46875 445.894531 467.542969 464.335938 467.621094 482.773438 C 467.542969 501.226562 467.46875 519.667969 467.410156 536.945312 C 467.226562 554.238281 467.0625 570.386719 466.910156 584.210938 C 466.777344 598.054688 466.398438 609.570312 466.261719 617.636719 C 466.082031 625.703125 465.992188 630.316406 465.992188 630.316406 C 465.992188 630.316406 465.886719 625.703125 465.707031 617.636719 C 465.570312 609.570312 465.207031 598.054688 465.058594 584.210938 C 464.921875 570.386719 464.742188 554.238281 464.558594 536.945312 C 464.5 519.667969 464.425781 501.226562 464.347656 482.773438 C 464.425781 464.335938 464.5 445.894531 464.558594 428.601562 C 464.753906 411.308594 464.921875 395.175781 465.074219 381.335938 C 465.207031 367.511719 465.570312 355.992188 465.707031 347.925781 C 465.886719 339.84375 465.992188 335.246094 465.992188 335.246094"/><path fill="#D45341" d="M 445.628906 352.960938 C 445.628906 352.960938 445.75 357.242188 445.945312 364.734375 C 446.097656 372.242188 446.308594 382.949219 446.546875 395.792969 C 446.699219 408.65625 446.863281 423.640625 447.046875 439.714844 C 447.121094 455.785156 447.195312 472.929688 447.273438 490.054688 C 447.195312 507.199219 447.121094 524.339844 447.046875 540.398438 C 446.863281 556.46875 446.699219 571.472656 446.546875 584.316406 C 446.15625 610.023438 445.628906 627.167969 445.628906 627.167969 C 445.628906 627.167969 445.101562 610.023438 444.710938 584.316406 C 444.558594 571.472656 444.394531 556.46875 444.210938 540.398438 C 444.136719 524.339844 444.0625 507.199219 443.984375 490.054688 C 444.0625 472.929688 444.136719 455.785156 444.210938 439.714844 C 444.394531 423.640625 444.574219 408.65625 444.710938 395.792969 C 444.964844 382.949219 445.160156 372.230469 445.3125 364.734375 C 445.523438 357.242188 445.628906 352.960938 445.628906 352.960938"/><path fill="#D45341" d="M 425.28125 370.660156 C 425.28125 370.660156 425.402344 374.6875 425.597656 381.710938 C 425.75 388.722656 425.960938 398.765625 426.199219 410.8125 C 426.351562 422.859375 426.515625 436.910156 426.699219 451.957031 C 426.773438 467.003906 426.847656 483.058594 426.925781 499.117188 C 426.847656 515.175781 426.773438 531.230469 426.714844 546.277344 C 426.652344 561.339844 426.335938 575.390625 426.199219 587.4375 C 425.808594 611.515625 425.28125 627.574219 425.28125 627.574219 C 425.28125 627.574219 424.753906 611.515625 424.363281 587.4375 C 424.226562 575.390625 423.910156 561.339844 423.863281 546.277344 C 423.789062 531.230469 423.714844 515.175781 423.652344 499.117188 C 423.730469 483.058594 423.804688 467.003906 423.863281 451.957031 C 424.046875 436.910156 424.226562 422.859375 424.363281 410.8125 C 424.617188 398.765625 424.828125 388.722656 424.964844 381.710938 C 425.175781 374.6875 425.28125 370.660156 425.28125 370.660156"/><path fill="#D45341" d="M 404.933594 388.375 C 404.933594 388.375 405.054688 392.117188 405.25 398.660156 C 405.402344 405.203125 405.597656 414.550781 405.851562 425.765625 C 405.988281 436.96875 406.289062 450.054688 406.351562 464.078125 C 406.425781 478.085938 406.5 493.042969 406.578125 507.984375 C 406.5 522.9375 406.425781 537.894531 406.351562 551.902344 C 406.304688 565.910156 405.988281 578.996094 405.851562 590.210938 C 405.460938 612.648438 404.933594 627.589844 404.933594 627.589844 C 404.933594 627.589844 404.40625 612.648438 404.015625 590.210938 C 403.878906 578.996094 403.5625 565.921875 403.515625 551.902344 C 403.441406 537.894531 403.367188 522.9375 403.289062 507.984375 C 403.367188 493.042969 403.441406 478.085938 403.515625 464.078125 C 403.578125 450.054688 403.878906 436.96875 404.015625 425.765625 C 404.269531 414.550781 404.464844 405.203125 404.617188 398.660156 C 404.8125 392.117188 404.933594 388.375 404.933594 388.375"/><path fill="#D45341" d="M 384.570312 406.09375 C 384.570312 406.09375 384.738281 409.558594 384.992188 415.621094 C 385.203125 421.667969 385.503906 430.320312 385.882812 440.707031 C 386.125 451.097656 386.558594 463.203125 386.769531 476.183594 C 386.984375 489.179688 387.207031 503.023438 387.433594 516.863281 C 387.207031 530.71875 386.984375 544.574219 386.769531 557.570312 C 386.574219 570.566406 386.125 582.675781 385.882812 593.078125 C 385.25 613.839844 384.570312 627.679688 384.570312 627.679688 C 384.570312 627.679688 384.195312 613.824219 384.027344 593.046875 C 384.011719 582.660156 383.832031 570.550781 383.921875 557.570312 C 384 544.589844 384.074219 530.75 384.164062 516.90625 C 384.089844 503.050781 384 489.210938 383.9375 476.214844 C 383.847656 463.25 384.011719 451.113281 384.042969 440.738281 C 384.179688 430.335938 384.285156 421.679688 384.359375 415.621094 C 384.496094 409.558594 384.570312 406.09375 384.570312 406.09375"/><path fill="#D45341" d="M 364.222656 423.824219 C 364.222656 423.824219 364.34375 427.003906 364.539062 432.582031 C 364.675781 438.144531 364.992188 446.105469 365.144531 455.664062 C 365.277344 465.210938 365.578125 476.351562 365.640625 488.292969 C 365.714844 500.25 365.789062 512.988281 365.867188 525.714844 C 365.789062 538.453125 365.714844 551.195312 365.640625 563.132812 C 365.59375 575.074219 365.277344 586.21875 365.144531 595.777344 C 364.75 614.878906 364.222656 627.617188 364.222656 627.617188 C 364.222656 627.617188 363.695312 614.878906 363.304688 595.777344 C 363.167969 586.21875 362.851562 575.074219 362.804688 563.132812 C 362.730469 551.195312 362.65625 538.453125 362.582031 525.714844 C 362.65625 512.988281 362.730469 500.25 362.804688 488.292969 C 362.867188 476.351562 363.167969 465.210938 363.304688 455.664062 C 363.453125 446.105469 363.769531 438.144531 363.90625 432.582031 C 364.101562 427.003906 364.222656 423.824219 364.222656 423.824219"/><path fill="#D45341" d="M 343.859375 441.539062 C 343.859375 441.539062 343.980469 444.433594 344.175781 449.484375 C 344.3125 454.550781 344.628906 461.785156 344.78125 470.472656 C 344.914062 479.15625 345.21875 489.285156 345.277344 500.128906 C 345.351562 510.984375 345.429688 522.546875 345.503906 534.125 C 345.429688 545.707031 345.351562 557.285156 345.292969 568.140625 C 345.230469 578.980469 344.929688 589.113281 344.796875 597.796875 C 344.386719 615.148438 343.859375 626.730469 343.859375 626.730469 C 343.859375 626.730469 343.332031 615.148438 342.941406 597.796875 C 342.804688 589.113281 342.503906 578.980469 342.445312 568.140625 C 342.367188 557.285156 342.308594 545.707031 342.234375 534.125 C 342.308594 522.546875 342.382812 510.984375 342.445312 500.128906 C 342.503906 489.285156 342.820312 479.15625 342.941406 470.472656 C 343.09375 461.785156 343.421875 454.550781 343.542969 449.484375 C 343.753906 444.433594 343.859375 441.539062 343.859375 441.539062"/><path fill="#D45341" d="M 323.511719 459.253906 C 323.511719 459.253906 323.632812 461.878906 323.828125 466.492188 C 323.964844 471.074219 324.28125 477.664062 324.433594 485.546875 C 324.566406 493.449219 324.871094 502.660156 324.929688 512.519531 C 325.003906 522.382812 325.082031 532.90625 325.15625 543.429688 C 325.082031 553.953125 325.003906 564.476562 324.929688 574.335938 C 324.882812 584.195312 324.566406 593.410156 324.433594 601.292969 C 324.039062 617.078125 323.511719 627.605469 323.511719 627.605469 C 323.511719 627.605469 322.984375 617.078125 322.59375 601.292969 C 322.457031 593.410156 322.140625 584.210938 322.097656 574.335938 C 322.019531 564.476562 321.945312 553.953125 321.886719 543.429688 C 321.945312 532.90625 322.019531 522.382812 322.097656 512.519531 C 322.15625 502.660156 322.457031 493.449219 322.59375 485.546875 C 322.742188 477.664062 323.0625 471.074219 323.195312 466.492188 C 323.390625 461.878906 323.511719 459.253906 323.511719 459.253906"/><path fill="#D45341" d="M 303.164062 476.96875 C 303.164062 476.96875 303.285156 479.320312 303.480469 483.421875 C 303.617188 487.523438 303.933594 493.386719 304.085938 500.429688 C 304.21875 507.46875 304.523438 515.6875 304.582031 524.476562 C 304.65625 533.28125 304.734375 542.675781 304.792969 552.066406 C 304.734375 561.445312 304.65625 570.839844 304.582031 579.628906 C 304.535156 588.433594 304.21875 596.652344 304.085938 603.691406 C 303.691406 617.773438 303.164062 627.152344 303.164062 627.152344 C 303.164062 627.152344 302.636719 617.773438 302.246094 603.691406 C 302.109375 596.652344 301.792969 588.433594 301.75 579.628906 C 301.671875 570.839844 301.597656 561.445312 301.523438 552.066406 C 301.597656 542.675781 301.671875 533.28125 301.75 524.476562 C 301.808594 515.6875 302.109375 507.46875 302.246094 500.429688 C 302.394531 493.386719 302.714844 487.523438 302.847656 483.421875 C 303.042969 479.320312 303.164062 476.96875 303.164062 476.96875"/><path fill="#D45341" d="M 282.800781 494.683594 C 282.800781 494.683594 282.921875 496.75 283.117188 500.355469 C 283.253906 503.972656 283.570312 509.128906 283.722656 515.308594 C 283.859375 521.507812 284.160156 528.730469 284.21875 536.464844 C 284.292969 544.199219 284.371094 552.445312 284.445312 560.707031 C 284.371094 568.953125 284.292969 577.203125 284.234375 584.9375 C 284.175781 592.683594 283.859375 599.890625 283.722656 606.089844 C 283.328125 618.46875 282.800781 626.714844 282.800781 626.714844 C 282.800781 626.714844 282.273438 618.46875 281.882812 606.089844 C 281.746094 599.890625 281.445312 592.683594 281.386719 584.9375 C 281.308594 577.203125 281.25 568.953125 281.175781 560.707031 C 281.25 552.445312 281.308594 544.199219 281.386719 536.464844 C 281.445312 528.730469 281.746094 521.507812 281.882812 515.308594 C 282.035156 509.128906 282.351562 503.972656 282.484375 500.355469 C 282.695312 496.75 282.800781 494.683594 282.800781 494.683594"/><path fill="#D45341" d="M 262.453125 507.695312 C 262.453125 507.695312 262.574219 509.566406 262.769531 512.835938 C 262.90625 516.109375 263.222656 520.796875 263.375 526.40625 C 263.523438 532.03125 263.796875 538.574219 263.902344 545.601562 C 264.039062 552.609375 264.066406 560.105469 264.113281 567.597656 C 264.066406 575.074219 264.050781 582.570312 263.917969 589.578125 C 263.8125 596.605469 263.523438 603.164062 263.390625 608.773438 C 262.980469 620.003906 262.453125 627.5 262.453125 627.5 C 262.453125 627.5 261.925781 620.003906 261.519531 608.773438 C 261.382812 603.164062 261.097656 596.605469 261.007812 589.578125 C 260.855469 582.570312 260.84375 575.074219 260.8125 567.597656 C 260.84375 560.105469 260.855469 552.609375 261.007812 545.601562 C 261.113281 538.574219 261.382812 532.03125 261.535156 526.40625 C 261.6875 520.796875 262.003906 516.109375 262.136719 512.835938 C 262.335938 509.566406 262.453125 507.695312 262.453125 507.695312"/><path fill="#D45341" d="M 242.105469 522.652344 C 242.105469 522.652344 242.210938 524.28125 242.421875 527.144531 C 242.558594 530.023438 242.875 534.109375 243.027344 539.027344 C 243.175781 543.925781 243.449219 549.65625 243.554688 555.808594 C 243.703125 561.941406 243.71875 568.488281 243.765625 575.046875 C 243.71875 581.589844 243.703125 588.132812 243.570312 594.269531 C 243.464844 600.417969 243.175781 606.132812 243.042969 611.050781 C 242.632812 620.878906 242.105469 627.421875 242.105469 627.421875 C 242.105469 627.421875 241.566406 620.878906 241.171875 611.050781 C 241.023438 606.132812 240.734375 600.417969 240.644531 594.269531 C 240.496094 588.132812 240.480469 581.589844 240.449219 575.046875 C 240.480469 568.488281 240.507812 561.941406 240.644531 555.808594 C 240.75 549.65625 241.023438 543.925781 241.171875 539.027344 C 241.324219 534.109375 241.640625 530.023438 241.777344 527.144531 C 241.988281 524.28125 242.105469 522.652344 242.105469 522.652344"/><path fill="#D45341" d="M 221.746094 537.019531 C 221.746094 537.019531 222.257812 542.691406 222.695312 551.179688 C 223.117188 559.683594 223.402344 571.003906 223.417969 582.328125 C 223.402344 593.664062 223.132812 604.972656 222.707031 613.476562 C 222.257812 621.980469 221.746094 627.632812 221.746094 627.632812 C 221.746094 627.632812 221.230469 621.980469 220.792969 613.476562 C 220.359375 604.972656 220.085938 593.664062 220.070312 582.328125 C 220.085938 571.003906 220.371094 559.683594 220.792969 551.179688 C 221.230469 542.691406 221.746094 537.019531 221.746094 537.019531"/><path fill="#D45341" d="M 201.398438 551.992188 C 201.398438 551.992188 201.910156 556.679688 202.359375 563.691406 C 202.785156 570.71875 203.054688 580.082031 203.070312 589.445312 C 203.070312 598.808594 202.785156 608.167969 202.359375 615.195312 C 201.925781 622.207031 201.398438 626.894531 201.398438 626.894531 C 201.398438 626.894531 200.882812 622.207031 200.433594 615.195312 C 200.011719 608.167969 199.738281 598.808594 199.722656 589.445312 C 199.738281 580.082031 200.011719 570.71875 200.445312 563.691406 C 200.882812 556.679688 201.398438 551.992188 201.398438 551.992188"/><path fill="#D45341" d="M 181.050781 563.769531 C 181.050781 563.769531 181.5625 567.761719 182.011719 573.734375 C 182.4375 579.71875 182.722656 587.695312 182.738281 595.671875 C 182.722656 603.644531 182.449219 611.621094 182.011719 617.609375 C 181.5625 623.59375 181.050781 627.574219 181.050781 627.574219 C 181.050781 627.574219 180.523438 623.59375 180.070312 617.609375 C 179.648438 611.621094 179.359375 603.644531 179.347656 595.671875 C 179.359375 587.695312 179.648438 579.71875 180.070312 573.734375 C 180.523438 567.761719 181.050781 563.769531 181.050781 563.769531"/><path fill="#D45341" d="M 160.6875 577.335938 C 160.6875 577.335938 161.257812 580.472656 161.664062 585.160156 C 162.089844 589.867188 162.375 596.121094 162.390625 602.378906 C 162.375 608.636719 162.101562 614.894531 161.664062 619.597656 C 161.257812 624.285156 160.6875 627.421875 160.6875 627.421875 C 160.6875 627.421875 160.113281 624.285156 159.707031 619.597656 C 159.269531 614.894531 159 608.636719 158.984375 602.378906 C 159 596.121094 159.285156 589.867188 159.707031 585.160156 C 160.113281 580.472656 160.6875 577.335938 160.6875 577.335938"/><path fill="#D45341" d="M 140.339844 587.304688 C 140.339844 587.304688 140.910156 589.804688 141.316406 593.542969 C 141.753906 597.269531 142.058594 602.257812 142.058594 607.25 C 142.058594 612.242188 141.769531 617.214844 141.332031 620.953125 C 140.925781 624.707031 140.339844 627.195312 140.339844 627.195312 C 140.339844 627.195312 139.75 624.707031 139.34375 620.953125 C 138.90625 617.214844 138.621094 612.242188 138.621094 607.25 C 138.621094 602.257812 138.921875 597.269531 139.359375 593.542969 C 139.765625 589.804688 140.339844 587.304688 140.339844 587.304688"/><path fill="#D45341" d="M 119.976562 596.710938 C 119.976562 596.710938 120.5625 598.640625 120.984375 601.535156 C 121.421875 604.429688 121.710938 608.289062 121.722656 612.148438 C 121.710938 616.007812 121.421875 619.871094 120.984375 622.765625 C 120.5625 625.660156 119.976562 627.589844 119.976562 627.589844 C 119.976562 627.589844 119.386719 625.660156 118.980469 622.765625 C 118.527344 619.871094 118.242188 616.007812 118.242188 612.148438 C 118.257812 608.289062 118.542969 604.429688 118.980469 601.535156 C 119.402344 598.640625 119.976562 596.710938 119.976562 596.710938"/><path fill="#D45341" d="M 99.628906 606.796875 C 99.628906 606.796875 100.214844 608.078125 100.636719 609.992188 C 101.074219 611.921875 101.375 614.488281 101.390625 617.050781 C 101.375 619.613281 101.089844 622.191406 100.636719 624.105469 C 100.214844 626.035156 99.628906 627.316406 99.628906 627.316406 C 99.628906 627.316406 99.023438 626.035156 98.601562 624.105469 C 98.167969 622.191406 97.863281 619.613281 97.863281 617.050781 C 97.863281 614.488281 98.167969 611.921875 98.617188 609.992188 C 99.023438 608.078125 99.628906 606.796875 99.628906 606.796875"/><path fill="#D45341" d="M 79.28125 613.128906 C 79.28125 613.128906 79.882812 614.035156 80.304688 615.40625 C 80.757812 616.761719 81.058594 618.585938 81.074219 620.398438 C 81.058594 622.222656 80.757812 624.046875 80.304688 625.402344 C 79.882812 626.757812 79.28125 627.664062 79.28125 627.664062 C 79.28125 627.664062 78.675781 626.757812 78.253906 625.402344 C 77.789062 624.046875 77.503906 622.222656 77.488281 620.398438 C 77.503906 618.585938 77.804688 616.761719 78.253906 615.40625 C 78.675781 614.035156 79.28125 613.128906 79.28125 613.128906"/><path fill="#D45341" d="M 1406.097656 629.609375 C 1406.097656 629.609375 1401.15625 629.367188 1392.503906 628.945312 C 1388.148438 628.613281 1382.753906 627.785156 1376.632812 627.046875 C 1373.632812 626.429688 1370.4375 625.765625 1367.0625 625.085938 C 1365.390625 624.707031 1363.640625 624.421875 1361.90625 623.957031 C 1360.160156 623.457031 1358.394531 622.945312 1356.570312 622.417969 C 1349.292969 620.472656 1341.605469 617.609375 1333.691406 614.199219 C 1325.792969 610.734375 1317.699219 606.542969 1309.742188 601.535156 C 1305.792969 599.003906 1301.722656 596.5 1297.910156 593.542969 C 1295.964844 592.113281 1294.007812 590.664062 1292.046875 589.21875 C 1290.164062 587.664062 1288.292969 586.097656 1286.394531 584.527344 C 1278.78125 578.285156 1271.714844 571.214844 1264.824219 564.007812 C 1258.179688 556.574219 1251.699219 549.007812 1245.941406 541.078125 C 1240.015625 533.25 1234.816406 525.140625 1229.875 517.253906 C 1225.09375 509.25 1220.617188 501.4375 1216.789062 493.808594 C 1212.855469 486.242188 1209.511719 478.898438 1206.480469 472.113281 C 1194.605469 444.78125 1189.71875 425.496094 1189.71875 425.496094 C 1189.71875 425.496094 1194.996094 444.6875 1207.402344 471.691406 C 1210.566406 478.402344 1214.046875 485.652344 1218.117188 493.101562 C 1222.097656 500.625 1226.707031 508.3125 1231.605469 516.167969 C 1236.6875 523.902344 1242.023438 531.847656 1248.050781 539.476562 C 1253.914062 547.214844 1260.46875 554.585938 1267.175781 561.777344 C 1274.125 568.757812 1281.226562 575.574219 1288.835938 581.542969 C 1290.71875 583.050781 1292.605469 584.558594 1294.472656 586.050781 C 1296.433594 587.421875 1298.378906 588.796875 1300.320312 590.167969 C 1304.121094 592.988281 1308.144531 595.355469 1312.0625 597.75 C 1319.914062 602.484375 1327.902344 606.390625 1335.652344 609.632812 C 1343.414062 612.769531 1350.917969 615.40625 1358.035156 617.140625 C 1359.796875 617.609375 1361.515625 618.074219 1363.21875 618.527344 C 1364.90625 618.933594 1366.609375 619.175781 1368.238281 619.507812 C 1371.507812 620.109375 1374.628906 620.699219 1377.535156 621.226562 C 1383.414062 621.800781 1388.464844 622.507812 1392.746094 622.75 C 1401.410156 622.988281 1406.355469 623.125 1406.355469 623.125 C 1408.148438 623.171875 1409.566406 624.664062 1409.503906 626.472656 C 1409.460938 628.253906 1407.96875 629.667969 1406.175781 629.609375 L 1406.097656 629.609375"/><path fill="#D45341" d="M 1427.773438 628.613281 C 1427.773438 628.613281 1423.011719 628.386719 1414.691406 627.980469 C 1410.515625 627.753906 1405.316406 626.878906 1399.4375 626.203125 C 1396.496094 625.792969 1393.453125 625.011719 1390.210938 624.378906 C 1386.957031 623.714844 1383.550781 623.003906 1380.097656 621.875 C 1376.632812 620.773438 1372.941406 619.929688 1369.292969 618.480469 C 1365.660156 617.035156 1361.832031 615.707031 1358.035156 614.035156 C 1354.3125 612.210938 1350.390625 610.476562 1346.546875 608.410156 C 1342.808594 606.179688 1338.847656 604.144531 1335.09375 601.609375 C 1327.558594 596.621094 1320.007812 591.070312 1313.042969 584.648438 C 1305.882812 578.421875 1299.417969 571.277344 1293.160156 563.992188 C 1287.101562 556.5625 1281.359375 548.855469 1276.328125 540.878906 C 1271.140625 533.011719 1266.753906 524.839844 1262.59375 516.894531 C 1258.632812 508.855469 1254.96875 501 1251.953125 493.371094 C 1248.820312 485.789062 1246.257812 478.460938 1243.964844 471.675781 C 1235.074219 444.449219 1232.390625 425.496094 1232.390625 425.496094 C 1232.390625 425.496094 1235.480469 444.386719 1244.945312 471.359375 C 1247.371094 478.070312 1250.070312 485.308594 1253.355469 492.785156 C 1256.519531 500.308594 1260.335938 508.042969 1264.433594 515.941406 C 1268.730469 523.722656 1273.25 531.742188 1278.558594 539.417969 C 1283.695312 547.214844 1289.53125 554.675781 1295.648438 561.882812 C 1301.964844 568.910156 1308.460938 575.800781 1315.605469 581.722656 C 1322.554688 587.875 1330.042969 593.109375 1337.488281 597.828125 C 1341.199219 600.195312 1345.101562 602.09375 1348.765625 604.203125 C 1352.546875 606.105469 1356.375 607.703125 1360.023438 609.40625 C 1363.746094 610.945312 1367.46875 612.164062 1371.027344 613.492188 C 1374.566406 614.804688 1378.183594 615.542969 1381.546875 616.539062 C 1384.90625 617.5625 1388.207031 618.164062 1391.375 618.738281 C 1394.507812 619.28125 1397.492188 619.988281 1400.296875 620.304688 C 1405.964844 620.835938 1410.773438 621.574219 1414.929688 621.707031 C 1423.265625 621.933594 1428.015625 622.054688 1428.015625 622.054688 C 1429.824219 622.117188 1431.253906 623.625 1431.210938 625.433594 C 1431.164062 627.242188 1429.65625 628.675781 1427.847656 628.613281 L 1427.773438 628.613281"/><path fill="#D45341" d="M 1242.292969 464.652344 C 1242.292969 464.652344 1242.773438 474.980469 1243.121094 490.449219 C 1243.242188 498.183594 1243.515625 507.199219 1243.574219 516.878906 C 1243.632812 526.542969 1243.710938 536.855469 1243.769531 547.183594 C 1243.710938 557.496094 1243.632812 567.808594 1243.574219 577.472656 C 1243.527344 587.136719 1243.242188 596.167969 1243.121094 603.902344 C 1242.773438 619.386719 1242.292969 629.699219 1242.292969 629.699219 C 1242.292969 629.699219 1241.824219 619.386719 1241.464844 603.902344 C 1241.34375 596.167969 1241.070312 587.136719 1241.027344 577.472656 C 1240.953125 567.808594 1240.890625 557.496094 1240.832031 547.183594 C 1240.890625 536.855469 1240.953125 526.542969 1241.027344 516.878906 C 1241.070312 507.199219 1241.359375 498.183594 1241.464844 490.449219 C 1241.824219 474.980469 1242.292969 464.652344 1242.292969 464.652344"/><path fill="#D45341" d="M 1259.703125 507.636719 C 1259.703125 507.636719 1260.125 515.25 1260.441406 526.691406 C 1260.546875 532.421875 1260.800781 539.101562 1260.847656 546.25 C 1260.90625 553.394531 1260.96875 561.039062 1261.027344 568.652344 C 1260.96875 576.296875 1260.90625 583.910156 1260.847656 591.070312 C 1260.800781 598.21875 1260.558594 604.898438 1260.441406 610.613281 C 1260.125 622.054688 1259.703125 629.699219 1259.703125 629.699219 C 1259.703125 629.699219 1259.265625 622.054688 1258.949219 610.613281 C 1258.84375 604.898438 1258.585938 598.21875 1258.539062 591.070312 C 1258.480469 583.910156 1258.433594 576.296875 1258.375 568.652344 C 1258.433594 561.039062 1258.496094 553.394531 1258.539062 546.25 C 1258.601562 539.101562 1258.84375 532.421875 1258.949219 526.691406 C 1259.28125 515.25 1259.703125 507.636719 1259.703125 507.636719"/><path fill="#D45341" d="M 1279.203125 540.867188 C 1279.203125 540.867188 1279.65625 546.414062 1280.0625 554.738281 C 1280.214844 558.898438 1280.5 563.753906 1280.621094 568.953125 C 1280.742188 574.15625 1280.878906 579.71875 1281 585.253906 C 1280.878906 590.816406 1280.742188 596.378906 1280.621094 601.597656 C 1280.5 606.796875 1280.214844 611.667969 1280.0625 615.8125 C 1279.65625 624.152344 1279.203125 629.699219 1279.203125 629.699219 C 1279.203125 629.699219 1278.886719 624.121094 1278.722656 615.796875 C 1278.675781 611.636719 1278.527344 606.78125 1278.558594 601.582031 C 1278.570312 596.394531 1278.601562 590.832031 1278.617188 585.296875 C 1278.601562 579.734375 1278.585938 574.199219 1278.558594 568.984375 C 1278.542969 563.78125 1278.691406 558.929688 1278.722656 554.75 C 1278.902344 546.429688 1279.203125 540.867188 1279.203125 540.867188"/><path fill="#D45341" d="M 1299.871094 566.558594 C 1299.871094 566.558594 1300.199219 570.234375 1300.441406 575.769531 C 1300.53125 578.527344 1300.714844 581.753906 1300.757812 585.207031 C 1300.804688 588.660156 1300.847656 592.339844 1300.894531 596.03125 C 1300.847656 599.710938 1300.804688 603.40625 1300.757812 606.859375 C 1300.726562 610.308594 1300.53125 613.535156 1300.441406 616.296875 C 1300.199219 621.828125 1299.871094 625.507812 1299.871094 625.507812 C 1299.871094 625.507812 1299.539062 621.828125 1299.28125 616.296875 C 1299.207031 613.535156 1299.011719 610.308594 1298.980469 606.859375 C 1298.933594 603.40625 1298.890625 599.710938 1298.84375 596.03125 C 1298.890625 592.339844 1298.933594 588.660156 1298.980469 585.207031 C 1299.011719 581.753906 1299.207031 578.527344 1299.296875 575.769531 C 1299.539062 570.234375 1299.871094 566.558594 1299.871094 566.558594"/><path fill="#D45341" d="M 1317.773438 582.3125 C 1317.773438 582.3125 1318.089844 585.28125 1318.332031 589.714844 C 1318.558594 594.164062 1318.769531 600.089844 1318.753906 606 C 1318.769531 611.921875 1318.558594 617.847656 1318.332031 622.296875 C 1318.089844 626.730469 1317.773438 629.699219 1317.773438 629.699219 C 1317.773438 629.699219 1317.457031 626.730469 1317.234375 622.296875 C 1316.992188 617.847656 1316.78125 611.921875 1316.796875 606 C 1316.78125 600.089844 1316.992188 594.164062 1317.234375 589.714844 C 1317.457031 585.28125 1317.773438 582.3125 1317.773438 582.3125"/><path fill="#D45341" d="M 1334.609375 595.039062 C 1334.609375 595.039062 1334.867188 597.207031 1335.078125 600.449219 C 1335.136719 602.078125 1335.304688 603.976562 1335.335938 606 C 1335.363281 608.035156 1335.410156 610.191406 1335.441406 612.359375 C 1335.410156 614.53125 1335.363281 616.703125 1335.335938 618.722656 C 1335.304688 620.757812 1335.136719 622.660156 1335.078125 624.273438 C 1334.882812 627.527344 1334.609375 629.699219 1334.609375 629.699219 C 1334.609375 629.699219 1334.339844 627.527344 1334.128906 624.273438 C 1334.070312 622.660156 1333.902344 620.757812 1333.871094 618.722656 C 1333.84375 616.703125 1333.8125 614.53125 1333.765625 612.359375 C 1333.8125 610.191406 1333.84375 608.035156 1333.871094 606 C 1333.902344 603.976562 1334.070312 602.078125 1334.128906 600.449219 C 1334.339844 597.207031 1334.609375 595.039062 1334.609375 595.039062"/><path fill="#D45341" d="M 1350.890625 606.011719 C 1350.890625 606.011719 1351.128906 607.71875 1351.3125 610.265625 C 1351.507812 612.828125 1351.582031 616.234375 1351.628906 619.628906 C 1351.582031 623.035156 1351.507812 626.441406 1351.3125 628.992188 C 1351.128906 631.554688 1350.890625 633.257812 1350.890625 633.257812 C 1350.890625 633.257812 1350.648438 631.554688 1350.46875 628.992188 C 1350.269531 626.441406 1350.195312 623.035156 1350.152344 619.628906 C 1350.195312 616.234375 1350.269531 612.828125 1350.46875 610.265625 C 1350.648438 607.71875 1350.890625 606.011719 1350.890625 606.011719"/></svg>