<svg xmlns="http://www.w3.org/2000/svg" xmlns:xlink="http://www.w3.org/1999/xlink" width="40" height="40" viewBox="0 0 40 40">
  <defs>
    <clipPath id="clip-path">
      <rect id="Rectangle_9" data-name="Rectangle 9" width="40" height="40" transform="translate(0.126 0.025)" fill="#fff"/>
    </clipPath>
  </defs>
  <g id="Mask_Group_3" data-name="Mask Group 3" transform="translate(-0.126 -0.025)" clip-path="url(#clip-path)">
    <path id="iconmonstr-discord-4_1_" data-name="iconmonstr-discord-4 (1)" d="M20,0A20,20,0,1,0,40,20,20,20,0,0,0,20,0Zm5.413,30.58-.618-2.158,1.493,1.388L27.7,31.117l2.508,2.217V12.4A2.4,2.4,0,0,0,27.817,10H12.183a2.4,2.4,0,0,0-2.392,2.4V28.177a2.4,2.4,0,0,0,2.392,2.4h13.23Zm-2.1-5.343-.77-.945A3.681,3.681,0,0,0,24.655,22.9a6.676,6.676,0,0,1-1.342.688,7.679,7.679,0,0,1-1.692.5,8.173,8.173,0,0,1-3.022-.012,9.794,9.794,0,0,1-1.715-.5,6.836,6.836,0,0,1-.852-.4l-.047-.027-.012-.005-.047-.027-.047-.035-.327-.2A3.629,3.629,0,0,0,17.6,24.268l-.782.968a4.23,4.23,0,0,1-3.558-1.773,15.623,15.623,0,0,1,1.68-6.8,5.769,5.769,0,0,1,3.278-1.225l.117.14a7.871,7.871,0,0,0-3.068,1.528l.688-.338a8.761,8.761,0,0,1,2.648-.735l.2-.023a9.871,9.871,0,0,1,2.357-.023,9.51,9.51,0,0,1,3.512,1.12,7.764,7.764,0,0,0-2.9-1.482l.163-.187A5.769,5.769,0,0,1,25.2,16.662a15.623,15.623,0,0,1,1.68,6.8,4.362,4.362,0,0,1-3.57,1.773Zm-1.167-5.448a1.3,1.3,0,1,0,1.19,1.3A1.243,1.243,0,0,0,22.147,19.788Zm-4.258,0a1.3,1.3,0,1,0,1.19,1.3A1.243,1.243,0,0,0,17.888,19.788Z" transform="translate(0.126 0.013)" fill="#1c1818" fill-rule="evenodd"/>
  </g>
</svg>
